<?xml version="1.0" encoding="iso-8859-1"?>
<!-- Generator: Adobe Illustrator 18.0.0, SVG Export Plug-In . SVG Version: 6.00 Build 0)  -->
<!DOCTYPE svg PUBLIC "-//W3C//DTD SVG 1.1//EN" "http://www.w3.org/Graphics/SVG/1.1/DTD/svg11.dtd">
<svg version="1.1" id="Capa_1" xmlns="http://www.w3.org/2000/svg" xmlns:xlink="http://www.w3.org/1999/xlink" x="0px" y="0px"
	 viewBox="0 0 467.68 467.68" style="enable-background:new 0 0 467.68 467.68;" xml:space="preserve">
<path d="M427.804,140.812c-8.088,0-15.616,2.427-21.909,6.581c-5.27-15.86-20.238-27.335-37.845-27.335
	c-21.987,0-39.876,17.889-39.876,39.877v40.293H139.506v-40.293c0-21.988-17.889-39.877-39.876-39.877
	c-17.607,0-32.575,11.475-37.845,27.335c-6.292-4.154-13.821-6.581-21.908-6.581C17.889,140.812,0,158.701,0,180.689v106.303
	c0,21.988,17.889,39.876,39.876,39.876c8.088,0,15.616-2.427,21.908-6.581c5.27,15.86,20.238,27.335,37.845,27.335
	c21.988,0,39.876-17.888,39.876-39.876v-40.293h188.668v40.293c0,21.988,17.889,39.876,39.876,39.876
	c17.607,0,32.575-11.475,37.845-27.335c6.292,4.154,13.821,6.581,21.909,6.581c21.987,0,39.876-17.888,39.876-39.876V180.689
	C467.68,158.701,449.792,140.812,427.804,140.812z M39.876,306.868c-10.96,0-19.876-8.917-19.876-19.876V180.689
	c0-10.96,8.917-19.877,19.876-19.877s19.876,8.917,19.876,19.877v106.303C59.753,297.952,50.836,306.868,39.876,306.868z
	 M119.506,307.745c0,10.96-8.917,19.876-19.876,19.876s-19.877-8.917-19.877-19.876v-20.754V180.689v-20.754
	c0-10.96,8.917-19.877,19.877-19.877s19.876,8.917,19.876,19.877V307.745z M139.506,247.452v-27.224h188.668v27.224H139.506z
	 M387.927,307.745c0,10.96-8.917,19.876-19.877,19.876s-19.876-8.917-19.876-19.876V159.935c0-10.96,8.916-19.877,19.876-19.877
	s19.877,8.917,19.877,19.877V307.745z M447.68,286.992c0,10.96-8.916,19.876-19.876,19.876s-19.877-8.917-19.877-19.876V180.689
	c0-10.96,8.917-19.877,19.877-19.877s19.876,8.917,19.876,19.877V286.992z"/>
<g>
</g>
<g>
</g>
<g>
</g>
<g>
</g>
<g>
</g>
<g>
</g>
<g>
</g>
<g>
</g>
<g>
</g>
<g>
</g>
<g>
</g>
<g>
</g>
<g>
</g>
<g>
</g>
<g>
</g>
</svg>
